<?xml version="1.0" encoding="iso-8859-1"?>
<!-- Generator: Adobe Illustrator 18.0.0, SVG Export Plug-In . SVG Version: 6.00 Build 0)  -->
<!DOCTYPE svg PUBLIC "-//W3C//DTD SVG 1.1//EN" "http://www.w3.org/Graphics/SVG/1.1/DTD/svg11.dtd">
<svg version="1.1" id="Capa_1" xmlns="http://www.w3.org/2000/svg" xmlns:xlink="http://www.w3.org/1999/xlink" x="0px" y="0px"
	 viewBox="0 0 436.432 436.432" style="enable-background:new 0 0 436.432 436.432;" xml:space="preserve">
<g>
	<path d="M346.946,74.322C320.077,27.784,271.954,0,218.216,0c-53.737,0-101.86,27.784-128.729,74.322
		c-26.869,46.538-26.869,102.106,0,148.644l120.502,208.716c1.697,2.939,4.833,4.75,8.227,4.75s6.53-1.811,8.227-4.75
		l120.502-208.716C373.815,176.428,373.815,120.86,346.946,74.322z M330.491,213.466L218.216,407.932L105.941,213.466
		c-23.434-40.59-23.434-89.055,0-129.644C129.376,43.232,171.348,19,218.216,19s88.841,24.232,112.275,64.822
		C353.926,124.411,353.925,172.876,330.491,213.466z"/>
	<path d="M218.216,41.193c-59.363,0-107.659,48.296-107.659,107.659c0,59.364,48.296,107.66,107.659,107.66
		c59.364,0,107.66-48.296,107.66-107.66C325.876,89.488,277.58,41.193,218.216,41.193z M176.769,227.206v-6.352
		c0-22.855,18.594-41.45,41.45-41.45s41.45,18.594,41.45,41.45v6.35c-12.378,6.575-26.486,10.308-41.452,10.308
		C203.252,237.511,189.145,233.78,176.769,227.206z M218.216,107.558c14.568,0,26.421,11.853,26.421,26.421
		S232.785,160.4,218.216,160.4c-14.569,0-26.421-11.853-26.421-26.421S203.648,107.558,218.216,107.558z M278.27,214.012
		c-2.222-19.625-13.875-36.422-30.307-45.752c9.592-8.334,15.674-20.607,15.674-34.281c0-25.045-20.375-45.421-45.421-45.421
		s-45.421,20.376-45.421,45.421c0,13.675,6.083,25.949,15.676,34.283c-16.432,9.331-28.085,26.129-30.305,45.754
		c-17.579-16.212-28.609-39.422-28.609-65.164c0-48.887,39.772-88.659,88.659-88.659c48.887,0,88.66,39.772,88.66,88.659
		C306.876,174.592,295.846,197.801,278.27,214.012z"/>
</g>
<g>
</g>
<g>
</g>
<g>
</g>
<g>
</g>
<g>
</g>
<g>
</g>
<g>
</g>
<g>
</g>
<g>
</g>
<g>
</g>
<g>
</g>
<g>
</g>
<g>
</g>
<g>
</g>
<g>
</g>
</svg>
